<?xml version="1.0" encoding="utf-8"?>
<!-- Generator: Adobe Illustrator 21.1.0, SVG Export Plug-In . SVG Version: 6.00 Build 0)  -->
<svg version="1.1" id="Layer_1" xmlns="http://www.w3.org/2000/svg" xmlns:xlink="http://www.w3.org/1999/xlink" x="0px" y="0px"
	 viewBox="0 0 67 67" style="enable-background:new 0 0 67 67;" xml:space="preserve">
<style type="text/css">
	.st0{fill:#1D1D1D;}
	.st1{fill:#F5F5F5;}
</style>
<circle class="st0" cx="33.5" cy="33.5" r="33.5"/>
<path class="st1" d="M51.2,50.4V37.3c0-7-3.7-10.3-8.7-10.3c-4,0-5.8,2.2-6.8,3.8v-3.2H28c0.1,2.1,0,22.8,0,22.8h7.6V37.7
	c0-0.7,0-1.4,0.3-1.8c0.5-1.4,1.8-2.8,3.9-2.8c2.7,0,3.8,2.1,3.8,5.2v12.2L51.2,50.4L51.2,50.4z"/>
<path class="st1" d="M20.1,24.5c2.6,0,4.3-1.8,4.3-3.9c0-2.2-1.6-3.9-4.2-3.9s-4.3,1.7-4.3,3.9C15.8,22.7,17.5,24.5,20.1,24.5
	L20.1,24.5z"/>
<rect x="16.3" y="27.6" class="st1" width="7.6" height="22.8"/>
</svg>
